<svg width="14" height="13" fill="none" xmlns="http://www.w3.org/2000/svg"><path d="M12.686.321l.353.353c.486.486.412 1.349-.166 1.926L5.6 9.874l-2.357.862c-.296.108-.584-.033-.642-.314a.554.554 0 01.027-.305l.878-2.377L10.76.487c.578-.578 1.44-.652 1.927-.165V.32zm-7.404.723a.598.598 0 010 1.196h-2.39a1.196 1.196 0 00-1.196 1.195v7.174a1.196 1.196 0 001.195 1.195h7.174a1.196 1.196 0 001.195-1.195V8.218a.598.598 0 011.196 0v2.39A2.391 2.391 0 0110.065 13H2.89A2.39 2.39 0 01.5 10.609V3.435a2.391 2.391 0 012.391-2.39h2.391z" fill="#222"/></svg>