<svg width="14" height="15" fill="none" xmlns="http://www.w3.org/2000/svg"><path d="M13.955 4.93a5.077 5.077 0 00-.326-1.723 3.584 3.584 0 00-2.047-2.047 5.136 5.136 0 00-1.7-.326C9.136.8 8.899.79 7 .79c-1.898 0-2.142 0-2.884.043a5.136 5.136 0 00-1.699.326A3.581 3.581 0 00.37 3.207a5.095 5.095 0 00-.325 1.699C.01 5.655 0 5.892 0 7.79c0 1.899 0 2.141.044 2.885.011.581.12 1.155.325 1.7a3.584 3.584 0 002.048 2.046c.542.212 1.117.33 1.699.35.748.033.986.043 2.884.043s2.142 0 2.884-.043a5.124 5.124 0 001.7-.326 3.588 3.588 0 002.047-2.047 5.12 5.12 0 00.325-1.7c.034-.748.044-.985.044-2.884-.002-1.899-.002-2.14-.045-2.884zm-6.96 6.45a3.593 3.593 0 11-.002-7.186 3.593 3.593 0 01.002 7.186zm3.737-6.483a.838.838 0 11-.002-1.675.838.838 0 01.002 1.675z" fill="#777"/><path d="M6.995 10.121a2.335 2.335 0 100-4.669 2.335 2.335 0 000 4.67z" fill="#777"/></svg>