<svg width="17" height="18" fill="none" xmlns="http://www.w3.org/2000/svg"><path d="M16.11.424l.465.467c.643.643.546 1.783-.219 2.546l-9.614 9.615-3.116 1.14c-.39.144-.772-.043-.85-.415a.733.733 0 01.036-.403l1.162-3.142L13.562.643c.764-.763 1.905-.861 2.547-.218zm-9.788.956a.79.79 0 110 1.581H3.16a1.58 1.58 0 00-1.58 1.58v9.483a1.58 1.58 0 001.58 1.58h9.483a1.58 1.58 0 001.58-1.58v-3.16a.79.79 0 011.58 0v3.16a3.161 3.161 0 01-3.16 3.161H3.16A3.16 3.16 0 010 14.025V4.54a3.161 3.161 0 013.161-3.16h3.16z" fill="#EFFAF9"/></svg>