<svg width="70" height="45" fill="none" xmlns="http://www.w3.org/2000/svg"><path d="M33.74 42.6c1.92-4.32 4.2-8.88 6.84-13.68 2.64-4.8 5.46-9.66 8.46-14.58 3-4.92 5.88-9.54 8.64-13.86h11.88c-2.04 4.68-4.2 9.66-6.48 14.94-2.16 5.28-4.26 10.44-6.3 15.48-1.92 4.92-3.6 9.48-5.04 13.68H34.46l-.72-1.98zM.8 42.6c1.92-4.32 4.14-8.88 6.66-13.68 2.64-4.8 5.4-9.66 8.28-14.58 3-4.92 5.88-9.54 8.64-13.86h12.06c-1.56 3.6-3.18 7.32-4.86 11.16-1.56 3.84-3.12 7.74-4.68 11.7-1.56 3.84-3.06 7.56-4.5 11.16-1.44 3.6-2.7 6.96-3.78 10.08H1.34L.8 42.6z" fill="#DFF1F0"/></svg>