<svg width="18" height="17" fill="none" xmlns="http://www.w3.org/2000/svg"><path d="M13.74 5.512a1.048 1.048 0 110-2.095 1.048 1.048 0 010 2.095zM9.2 6.21a2.794 2.794 0 110 5.588 2.794 2.794 0 010-5.588zm0-1.397a4.19 4.19 0 100 8.382 4.19 4.19 0 000-8.382z" fill="#FDF7F4"/><path d="M12.38 1.983a3.41 3.41 0 013.4 3.4v6.801a3.41 3.41 0 01-3.4 3.4H5.579a3.41 3.41 0 01-3.4-3.4v-6.8a3.41 3.41 0 013.4-3.4h6.8zm0-1.36H5.579a4.775 4.775 0 00-4.76 4.76v6.801a4.775 4.775 0 004.76 4.76h6.8a4.775 4.775 0 004.761-4.76v-6.8A4.775 4.775 0 0012.38.623z" fill="#FDF7F4"/></svg>