<svg width="12" height="10" fill="none" xmlns="http://www.w3.org/2000/svg"><path d="M12 1.136a4.974 4.974 0 01-1.414.382c.51-.3.898-.775 1.083-1.34a4.992 4.992 0 01-1.565.588A2.472 2.472 0 008.308 0c-1.36 0-2.462 1.086-2.462 2.424 0 .19.022.374.064.552A7.025 7.025 0 01.836.444c-.219.369-.334.79-.333 1.218 0 .84.435 1.584 1.095 2.017a2.491 2.491 0 01-1.116-.303v.03a2.436 2.436 0 001.976 2.376 2.53 2.53 0 01-1.113.04 2.459 2.459 0 002.3 1.684A4.987 4.987 0 01.586 8.543c-.198 0-.394-.012-.587-.034A7.036 7.036 0 003.773 9.6c4.529 0 7.004-3.694 7.004-6.898l-.008-.314c.483-.34.9-.763 1.231-1.252z" fill="#fff"/></svg>