<svg width="14" height="13" viewBox="0 0 14 13" fill="none" xmlns="http://www.w3.org/2000/svg">
<path d="M12.6859 0.320957L13.0386 0.673651C13.5246 1.16025 13.451 2.02285 12.873 2.60032L5.59971 9.87358L3.24324 10.7356C2.94734 10.8444 2.6592 10.7033 2.60062 10.4217C2.58082 10.3196 2.59014 10.214 2.62752 10.1169L3.50627 7.74008L10.7592 0.486544C11.3373 -0.0909173 12.1999 -0.165043 12.6859 0.321555V0.320957ZM5.28229 1.04428C5.36079 1.04428 5.43852 1.05974 5.51105 1.08978C5.58358 1.11982 5.64948 1.16386 5.70499 1.21937C5.7605 1.27488 5.80453 1.34078 5.83457 1.4133C5.86461 1.48583 5.88007 1.56356 5.88007 1.64206C5.88007 1.72057 5.86461 1.7983 5.83457 1.87083C5.80453 1.94335 5.7605 2.00925 5.70499 2.06476C5.64948 2.12027 5.58358 2.16431 5.51105 2.19435C5.43852 2.22439 5.36079 2.23985 5.28229 2.23985H2.89114C2.57406 2.23985 2.26996 2.36581 2.04575 2.59003C1.82153 2.81424 1.69557 3.11834 1.69557 3.43542V10.6089C1.69557 10.9259 1.82153 11.23 2.04575 11.4543C2.26996 11.6785 2.57406 11.8044 2.89114 11.8044H10.0646C10.3817 11.8044 10.6858 11.6785 10.91 11.4543C11.1342 11.23 11.2601 10.9259 11.2601 10.6089V8.21771C11.2601 8.05917 11.3231 7.90712 11.4352 7.79501C11.5473 7.68291 11.6994 7.61993 11.8579 7.61993C12.0165 7.61993 12.1685 7.68291 12.2806 7.79501C12.3927 7.90712 12.4557 8.05917 12.4557 8.21771V10.6089C12.4557 11.243 12.2038 11.8512 11.7554 12.2996C11.3069 12.7481 10.6987 13 10.0646 13H2.89114C2.25697 13 1.64878 12.7481 1.20035 12.2996C0.751923 11.8512 0.5 11.243 0.5 10.6089V3.43542C0.5 2.80125 0.751923 2.19305 1.20035 1.74463C1.64878 1.2962 2.25697 1.04428 2.89114 1.04428H5.28229Z" fill="#222222"/>
</svg>
