<svg width="14" height="15" viewBox="0 0 14 15" fill="none" xmlns="http://www.w3.org/2000/svg">
<path d="M13.9549 4.93007C13.9471 4.34126 13.8368 3.7583 13.6292 3.20728C13.4491 2.74249 13.174 2.32038 12.8215 1.96792C12.4691 1.61545 12.047 1.34039 11.5822 1.1603C11.0382 0.956109 10.4636 0.845701 9.88272 0.833774C9.13483 0.800345 8.89771 0.791016 6.99922 0.791016C5.10073 0.791016 4.8574 0.791016 4.11495 0.833774C3.53433 0.845789 2.95996 0.956195 2.41626 1.1603C1.9514 1.34026 1.52923 1.61528 1.17675 1.96776C0.824268 2.32024 0.549247 2.74242 0.36928 3.20728C0.164684 3.7508 0.054516 4.32531 0.0435362 4.90596C0.0101066 5.65463 0 5.89175 0 7.79024C0 9.68873 -5.79232e-09 9.93129 0.0435362 10.6745C0.0551977 11.256 0.164816 11.8298 0.36928 12.3748C0.549549 12.8395 0.824775 13.2615 1.17737 13.6138C1.52997 13.9661 1.95218 14.241 2.41704 14.421C2.95924 14.6334 3.53372 14.7517 4.11573 14.7708C4.86439 14.8042 5.10151 14.8143 7 14.8143C8.89849 14.8143 9.14183 14.8143 9.88427 14.7708C10.4651 14.7594 11.0398 14.6492 11.5837 14.4451C12.0484 14.2648 12.4704 13.9896 12.8228 13.6372C13.1753 13.2847 13.4504 12.8627 13.6307 12.3981C13.8352 11.8539 13.9448 11.2801 13.9565 10.6978C13.9899 9.94995 14 9.71283 14 7.81356C13.9984 5.91507 13.9984 5.67407 13.9549 4.93007ZM6.99456 11.3804C5.009 11.3804 3.40049 9.77191 3.40049 7.78635C3.40049 5.80079 5.009 4.19228 6.99456 4.19228C7.94776 4.19228 8.86193 4.57094 9.53595 5.24496C10.21 5.91898 10.5886 6.83314 10.5886 7.78635C10.5886 8.73956 10.21 9.65372 9.53595 10.3277C8.86193 11.0018 7.94776 11.3804 6.99456 11.3804ZM10.7317 4.89741C10.6216 4.89751 10.5126 4.87591 10.4108 4.83383C10.3091 4.79175 10.2167 4.73002 10.1388 4.65218C10.061 4.57433 9.99927 4.4819 9.95719 4.38018C9.91511 4.27845 9.8935 4.16943 9.8936 4.05934C9.8936 3.94933 9.91527 3.84041 9.95737 3.73877C9.99946 3.63714 10.0612 3.5448 10.139 3.46701C10.2167 3.38922 10.3091 3.32752 10.4107 3.28542C10.5124 3.24332 10.6213 3.22166 10.7313 3.22166C10.8413 3.22166 10.9502 3.24332 11.0519 3.28542C11.1535 3.32752 11.2458 3.38922 11.3236 3.46701C11.4014 3.5448 11.4631 3.63714 11.5052 3.73877C11.5473 3.84041 11.569 3.94933 11.569 4.05934C11.569 4.52269 11.1942 4.89741 10.7317 4.89741Z" fill="#777777"/>
<path d="M6.99479 10.1214C8.28417 10.1214 9.32941 9.07616 9.32941 7.78678C9.32941 6.4974 8.28417 5.45215 6.99479 5.45215C5.70541 5.45215 4.66016 6.4974 4.66016 7.78678C4.66016 9.07616 5.70541 10.1214 6.99479 10.1214Z" fill="#777777"/>
</svg>
