<svg width="120" height="27" viewBox="0 0 120 27" fill="none" xmlns="http://www.w3.org/2000/svg">
<rect x="0.5" width="70" height="27" fill="#00AAA1"/>
<path d="M22.4 24H18.107L8.981 8.88H8.873C8.927 9.69 8.972 10.563 9.008 11.499C9.062 12.417 9.098 13.344 9.116 14.28V24H6.011V4.722H10.277L19.376 19.734H19.457C19.421 19.014 19.385 18.186 19.349 17.25C19.313 16.314 19.286 15.405 19.268 14.523V4.722H22.4V24ZM40.7052 16.656C40.7052 19.086 40.0752 20.967 38.8152 22.299C37.5552 23.613 35.8452 24.27 33.6852 24.27C32.3532 24.27 31.1652 23.973 30.1212 23.379C29.0772 22.785 28.2582 21.921 27.6642 20.787C27.0702 19.653 26.7732 18.276 26.7732 16.656C26.7732 14.226 27.3942 12.363 28.6362 11.067C29.8962 9.753 31.6062 9.096 33.7662 9.096C35.1162 9.096 36.3132 9.393 37.3572 9.987C38.4012 10.563 39.2202 11.418 39.8142 12.552C40.4082 13.668 40.7052 15.036 40.7052 16.656ZM30.2562 16.656C30.2562 18.204 30.5262 19.401 31.0662 20.247C31.6242 21.093 32.5152 21.516 33.7392 21.516C34.9632 21.516 35.8452 21.093 36.3852 20.247C36.9432 19.401 37.2222 18.204 37.2222 16.656C37.2222 15.108 36.9432 13.92 36.3852 13.092C35.8452 12.264 34.9542 11.85 33.7122 11.85C32.5062 11.85 31.6242 12.264 31.0662 13.092C30.5262 13.92 30.2562 15.108 30.2562 16.656ZM50.4321 21.543C50.8461 21.543 51.2511 21.507 51.6471 21.435C52.0611 21.345 52.4391 21.246 52.7811 21.138V23.676C52.4211 23.838 51.9531 23.973 51.3771 24.081C50.8011 24.207 50.1981 24.27 49.5681 24.27C48.7401 24.27 47.9841 24.135 47.3001 23.865C46.6161 23.577 46.0761 23.091 45.6801 22.407C45.2841 21.723 45.0861 20.769 45.0861 19.545V11.931H43.1151V10.446L45.2751 9.258L46.3551 6.153H48.4881V9.366H52.6461V11.931H48.4881V19.518C48.4881 20.202 48.6681 20.715 49.0281 21.057C49.3881 21.381 49.8561 21.543 50.4321 21.543ZM62.1569 9.096C64.1189 9.096 65.6669 9.681 66.8009 10.851C67.9529 12.021 68.5289 13.65 68.5289 15.738V17.466H58.8629C58.8989 18.798 59.2679 19.833 59.9699 20.571C60.6719 21.291 61.6439 21.651 62.8859 21.651C63.8219 21.651 64.6679 21.561 65.4239 21.381C66.1799 21.183 66.9539 20.904 67.7459 20.544V23.271C67.0259 23.613 66.2789 23.865 65.5049 24.027C64.7309 24.189 63.8039 24.27 62.7239 24.27C61.3019 24.27 60.0329 24 58.9169 23.46C57.8189 22.902 56.9549 22.065 56.3249 20.949C55.7129 19.833 55.4069 18.447 55.4069 16.791C55.4069 14.289 56.0279 12.381 57.2699 11.067C58.5119 9.753 60.1409 9.096 62.1569 9.096ZM62.1569 11.607C61.2389 11.607 60.4919 11.904 59.9159 12.498C59.3579 13.074 59.0339 13.938 58.9439 15.09H65.2349C65.2169 14.082 64.9559 13.254 64.4519 12.606C63.9659 11.94 63.2009 11.607 62.1569 11.607Z" fill="white"/>
<path d="M77.736 12.862C79.3113 12.862 80.5013 13.0887 81.306 13.542C82.122 13.9953 82.53 14.783 82.53 15.905C82.53 16.6077 82.3543 17.197 82.003 17.673C81.6517 18.149 81.1473 18.4437 80.49 18.557V18.642C80.932 18.7213 81.3343 18.8687 81.697 19.084C82.0597 19.288 82.343 19.5883 82.547 19.985C82.7623 20.3703 82.87 20.8803 82.87 21.515C82.87 22.6143 82.479 23.47 81.697 24.082C80.9263 24.694 79.8667 25 78.518 25H74.081V12.862H77.736ZM78.025 17.809C78.8863 17.809 79.4757 17.673 79.793 17.401C80.1217 17.129 80.286 16.7267 80.286 16.194C80.286 15.65 80.0877 15.259 79.691 15.021C79.3057 14.783 78.6937 14.664 77.855 14.664H76.257V17.809H78.025ZM76.257 19.56V23.181H78.229C79.113 23.181 79.725 23.011 80.065 22.671C80.4163 22.331 80.592 21.8777 80.592 21.311C80.592 20.7897 80.4107 20.3703 80.048 20.053C79.6967 19.7243 79.0563 19.56 78.127 19.56H76.257ZM93.3941 20.376C93.3941 21.906 92.9974 23.0903 92.2041 23.929C91.4107 24.7563 90.3341 25.17 88.9741 25.17C88.1354 25.17 87.3874 24.983 86.7301 24.609C86.0727 24.235 85.5571 23.691 85.1831 22.977C84.8091 22.263 84.6221 21.396 84.6221 20.376C84.6221 18.846 85.0131 17.673 85.7951 16.857C86.5884 16.0297 87.6651 15.616 89.0251 15.616C89.8751 15.616 90.6287 15.803 91.2861 16.177C91.9434 16.5397 92.4591 17.078 92.8331 17.792C93.2071 18.4947 93.3941 19.356 93.3941 20.376ZM86.8151 20.376C86.8151 21.3507 86.9851 22.1043 87.3251 22.637C87.6764 23.1697 88.2374 23.436 89.0081 23.436C89.7787 23.436 90.3341 23.1697 90.6741 22.637C91.0254 22.1043 91.2011 21.3507 91.2011 20.376C91.2011 19.4013 91.0254 18.6533 90.6741 18.132C90.3341 17.6107 89.7731 17.35 88.9911 17.35C88.2317 17.35 87.6764 17.6107 87.3251 18.132C86.9851 18.6533 86.8151 19.4013 86.8151 20.376ZM103.836 20.376C103.836 21.906 103.44 23.0903 102.646 23.929C101.853 24.7563 100.776 25.17 99.4164 25.17C98.5778 25.17 97.8298 24.983 97.1724 24.609C96.5151 24.235 95.9994 23.691 95.6254 22.977C95.2514 22.263 95.0644 21.396 95.0644 20.376C95.0644 18.846 95.4554 17.673 96.2374 16.857C97.0308 16.0297 98.1074 15.616 99.4674 15.616C100.317 15.616 101.071 15.803 101.728 16.177C102.386 16.5397 102.901 17.078 103.275 17.792C103.649 18.4947 103.836 19.356 103.836 20.376ZM97.2574 20.376C97.2574 21.3507 97.4274 22.1043 97.7674 22.637C98.1188 23.1697 98.6798 23.436 99.4504 23.436C100.221 23.436 100.776 23.1697 101.116 22.637C101.468 22.1043 101.643 21.3507 101.643 20.376C101.643 19.4013 101.468 18.6533 101.116 18.132C100.776 17.6107 100.215 17.35 99.4334 17.35C98.6741 17.35 98.1188 17.6107 97.7674 18.132C97.4274 18.6533 97.2574 19.4013 97.2574 20.376ZM108.176 18.217C108.176 18.5117 108.164 18.8233 108.142 19.152C108.119 19.4807 108.096 19.7923 108.074 20.087H108.125C108.261 19.883 108.431 19.6507 108.635 19.39C108.839 19.1293 109.031 18.897 109.213 18.693L111.933 15.786H114.364L110.675 19.764L114.602 25H112.103L109.247 21.056L108.176 21.94V25H106.051V12.08H108.176V18.217Z" fill="#222222"/>
<mask id="mask0_131_7731" style="mask-type:alpha" maskUnits="userSpaceOnUse" x="115" y="21" width="5" height="4">
<circle cx="117.5" cy="23" r="2" fill="white"/>
</mask>
<g mask="url(#mask0_131_7731)">
<rect x="115.5" y="21" width="2" height="4" fill="#00AAA1"/>
</g>
<mask id="mask1_131_7731" style="mask-type:alpha" maskUnits="userSpaceOnUse" x="115" y="21" width="5" height="4">
<circle cx="117.5" cy="23" r="2" transform="rotate(-180 117.5 23)" fill="#222222"/>
</mask>
<g mask="url(#mask1_131_7731)">
<rect x="119.5" y="25" width="2" height="4" transform="rotate(-180 119.5 25)" fill="#00AAA1"/>
</g>
</svg>
