<svg width="70" height="45" viewBox="0 0 70 45" fill="none" xmlns="http://www.w3.org/2000/svg">
<path d="M33.74 42.6C35.66 38.28 37.94 33.72 40.58 28.92C43.22 24.12 46.04 19.26 49.04 14.34C52.04 9.41999 54.92 4.79999 57.68 0.479992H69.56C67.52 5.16 65.36 10.14 63.08 15.42C60.92 20.7 58.82 25.86 56.78 30.9C54.86 35.82 53.18 40.38 51.74 44.58H34.46L33.74 42.6ZM0.8 42.6C2.72 38.28 4.94 33.72 7.46 28.92C10.1 24.12 12.86 19.26 15.74 14.34C18.74 9.41999 21.62 4.79999 24.38 0.479992H36.44C34.88 4.08 33.26 7.8 31.58 11.64C30.02 15.48 28.46 19.38 26.9 23.34C25.34 27.18 23.84 30.9 22.4 34.5C20.96 38.1 19.7 41.46 18.62 44.58H1.34L0.8 42.6Z" fill="#DFF1F0"/>
</svg>
