<svg width="120" height="27" fill="none" xmlns="http://www.w3.org/2000/svg"><path fill="#00AAA1" d="M.5 0h70v27H.5z"/><path d="M22.4 24h-4.293L8.981 8.88h-.108c.054.81.099 1.683.135 2.619.054.918.09 1.845.108 2.781V24H6.011V4.722h4.266l9.099 15.012h.081c-.036-.72-.072-1.548-.108-2.484-.036-.936-.063-1.845-.081-2.727V4.722H22.4V24zm18.305-7.344c0 2.43-.63 4.311-1.89 5.643-1.26 1.314-2.97 1.971-5.13 1.971-1.332 0-2.52-.297-3.564-.891-1.044-.594-1.863-1.458-2.457-2.592-.594-1.134-.89-2.511-.89-4.131 0-2.43.62-4.293 1.862-5.589 1.26-1.314 2.97-1.971 5.13-1.971 1.35 0 2.547.297 3.591.891 1.044.576 1.863 1.431 2.457 2.565.594 1.116.891 2.484.891 4.104zm-10.449 0c0 1.548.27 2.745.81 3.591.558.846 1.45 1.269 2.673 1.269 1.224 0 2.106-.423 2.646-1.269.558-.846.837-2.043.837-3.591s-.279-2.736-.837-3.564c-.54-.828-1.43-1.242-2.673-1.242-1.206 0-2.088.414-2.646 1.242-.54.828-.81 2.016-.81 3.564zm20.176 4.887c.414 0 .82-.036 1.215-.108.414-.09.792-.189 1.134-.297v2.538c-.36.162-.828.297-1.404.405a8.445 8.445 0 01-1.809.189c-.828 0-1.584-.135-2.268-.405-.684-.288-1.224-.774-1.62-1.458-.396-.684-.594-1.638-.594-2.862v-7.614h-1.97v-1.485l2.16-1.188 1.08-3.105h2.132v3.213h4.158v2.565h-4.158v7.587c0 .684.18 1.197.54 1.539.36.324.828.486 1.404.486zM62.157 9.096c1.962 0 3.51.585 4.644 1.755 1.152 1.17 1.728 2.799 1.728 4.887v1.728h-9.666c.036 1.332.405 2.367 1.107 3.105.702.72 1.674 1.08 2.916 1.08.936 0 1.782-.09 2.538-.27.756-.198 1.53-.477 2.322-.837v2.727a9.963 9.963 0 01-2.241.756c-.774.162-1.701.243-2.781.243-1.422 0-2.691-.27-3.807-.81-1.098-.558-1.962-1.395-2.592-2.511-.612-1.116-.918-2.502-.918-4.158 0-2.502.62-4.41 1.863-5.724 1.242-1.314 2.87-1.971 4.887-1.971zm0 2.511c-.918 0-1.665.297-2.241.891-.558.576-.882 1.44-.972 2.592h6.29c-.017-1.008-.278-1.836-.782-2.484-.486-.666-1.251-.999-2.295-.999z" fill="#fff"/><path d="M77.736 12.862c1.575 0 2.765.227 3.57.68.816.453 1.224 1.241 1.224 2.363 0 .703-.176 1.292-.527 1.768-.351.476-.856.77-1.513.884v.085c.442.08.844.227 1.207.442.363.204.646.504.85.901.215.385.323.895.323 1.53 0 1.1-.391 1.955-1.173 2.567-.77.612-1.83.918-3.179.918h-4.437V12.862h3.655zm.289 4.947c.861 0 1.45-.136 1.768-.408.329-.272.493-.674.493-1.207 0-.544-.198-.935-.595-1.173-.385-.238-.997-.357-1.836-.357h-1.598v3.145h1.768zm-1.768 1.751v3.621h1.972c.884 0 1.496-.17 1.836-.51.351-.34.527-.793.527-1.36 0-.521-.181-.94-.544-1.258-.351-.329-.992-.493-1.921-.493h-1.87zm17.137.816c0 1.53-.397 2.714-1.19 3.553-.793.827-1.87 1.241-3.23 1.241-.839 0-1.587-.187-2.244-.561-.657-.374-1.173-.918-1.547-1.632-.374-.714-.56-1.581-.56-2.601 0-1.53.39-2.703 1.172-3.519.793-.827 1.87-1.241 3.23-1.241.85 0 1.604.187 2.261.561.657.363 1.173.901 1.547 1.615.374.703.561 1.564.561 2.584zm-6.579 0c0 .975.17 1.728.51 2.261.351.533.912.799 1.683.799.77 0 1.326-.266 1.666-.799.351-.533.527-1.286.527-2.261 0-.975-.176-1.723-.527-2.244-.34-.521-.9-.782-1.683-.782-.76 0-1.315.26-1.666.782-.34.521-.51 1.27-.51 2.244zm17.021 0c0 1.53-.396 2.714-1.19 3.553-.793.827-1.87 1.241-3.23 1.241-.838 0-1.586-.187-2.244-.561-.657-.374-1.173-.918-1.547-1.632-.374-.714-.56-1.581-.56-2.601 0-1.53.39-2.703 1.172-3.519.794-.827 1.87-1.241 3.23-1.241.85 0 1.604.187 2.261.561.658.363 1.173.901 1.547 1.615.374.703.561 1.564.561 2.584zm-6.579 0c0 .975.17 1.728.51 2.261.352.533.913.799 1.683.799.771 0 1.326-.266 1.666-.799.352-.533.527-1.286.527-2.261 0-.975-.175-1.723-.527-2.244-.34-.521-.901-.782-1.683-.782-.759 0-1.314.26-1.666.782-.34.521-.51 1.27-.51 2.244zm10.919-2.159c0 .295-.012.606-.034.935l-.068.935h.051a14.499 14.499 0 011.088-1.394l2.72-2.907h2.431l-3.689 3.978L114.602 25h-2.499l-2.856-3.944-1.071.884V25h-2.125V12.08h2.125v6.137z" fill="#222"/><mask id="mask0_131_7731" style="mask-type:alpha" maskUnits="userSpaceOnUse" x="115" y="21" width="5" height="4"><circle cx="117.5" cy="23" r="2" fill="#fff"/></mask><g mask="url(#mask0_131_7731)"><path fill="#00AAA1" d="M115.5 21h2v4h-2z"/></g><mask id="mask1_131_7731" style="mask-type:alpha" maskUnits="userSpaceOnUse" x="115" y="21" width="5" height="4"><circle cx="117.5" cy="23" r="2" transform="rotate(-180 117.5 23)" fill="#222"/></mask><g mask="url(#mask1_131_7731)"><path fill="#00AAA1" d="M119.5 25h-2v-4h2z"/></g></svg>