<svg fill="none" height="24" stroke-width="1.5" width="24" xmlns="http://www.w3.org/2000/svg"><path d="M7 18h7m-7-4h1m-1-4h3M7 2h9.5L21 6.5V19" stroke="#555" stroke-linecap="round" stroke-linejoin="round"/><path d="M3 20.5v-14A1.5 1.5 0 014.5 5h9.752a.6.6 0 01.424.176l3.148 3.148A.6.6 0 0118 8.75V20.5a1.5 1.5 0 01-1.5 1.5h-12A1.5 1.5 0 013 20.5z" stroke="#555" stroke-linecap="round" stroke-linejoin="round"/><path d="M14 8.4V5.354a.354.354 0 01.604-.25l3.292 3.292a.353.353 0 01-.25.604H14.6a.6.6 0 01-.6-.6z" fill="#555" stroke="#555" stroke-linecap="round" stroke-linejoin="round"/></svg>