<svg width="14" height="15" fill="none" xmlns="http://www.w3.org/2000/svg"><path d="M6.976.303a7.038 7.038 0 00-4.453 1.625A6.979 6.979 0 00.866 10.67a7.016 7.016 0 003.551 3.132 6.597 6.597 0 010-2l.828-3.5a2.517 2.517 0 01-.19-1c0-.97.566-1.7 1.269-1.7a.886.886 0 01.858.626.877.877 0 01.03.374c0 .6-.381 1.5-.582 2.33a.997.997 0 00.573 1.188c.148.063.31.09.47.077 1.245 0 2.208-1.315 2.208-3.205a2.756 2.756 0 00-.837-2.07 2.776 2.776 0 00-2.098-.78 3.05 3.05 0 00-2.238.844 3.03 3.03 0 00-.933 2.196c-.005.572.17 1.13.502 1.595a.22.22 0 01.05.2c-.055.22-.176.7-.196.795-.02.095-.105.155-.235.095-.878-.41-1.425-1.685-1.425-2.715 0-2.204 1.61-4.234 4.64-4.234 2.434 0 4.33 1.73 4.33 4.044 0 2.41-1.505 4.35-3.647 4.35a1.892 1.892 0 01-1.61-.8l-.437 1.665a7.764 7.764 0 01-.873 1.835c.682.201 1.39.299 2.102.29 1.863 0 3.65-.737 4.967-2.05A6.987 6.987 0 0014 7.302c0-1.856-.74-3.636-2.057-4.95A7.036 7.036 0 006.976.303z" fill="#777"/></svg>