<svg height="512" id="Layer_1" version="1.1" width="512" xml:space="preserve" xmlns="http://www.w3.org/2000/svg"><path d="M496.487 15.3c-6.375-6.365-14.737-9.552-23.089-9.552-8.362 0-16.713 3.187-23.078 9.552l-96.042 96.032V93.141H6.108v413.446H419.56V158.423h-20.018l96.945-96.957c12.762-12.729 12.762-33.415 0-46.166zM397.8 484.827H27.869V114.902h322.85L180.193 285.417v47.091h45.285L397.8 160.165v324.662zm83.301-438.746L216.468 310.747h-14.514v-16.32L465.717 30.675c2.763-2.763 5.993-3.166 7.682-3.166 1.69 0 4.931.413 7.703 3.187 2.784 2.773 3.199 6.015 3.199 7.703a10.81 10.81 0 01-3.2 7.682z" fill="#555"/></svg>